<?xml version="1.0" encoding="UTF-8" standalone="no"?>
<!-- Created with Inkscape (http://www.inkscape.org/) -->

<svg
   xmlns:dc="http://purl.org/dc/elements/1.1/"
   xmlns:cc="http://creativecommons.org/ns#"
   xmlns:rdf="http://www.w3.org/1999/02/22-rdf-syntax-ns#"
   xmlns:svg="http://www.w3.org/2000/svg"
   xmlns="http://www.w3.org/2000/svg"
   xmlns:sodipodi="http://sodipodi.sourceforge.net/DTD/sodipodi-0.dtd"
   xmlns:inkscape="http://www.inkscape.org/namespaces/inkscape"
   width="164.27423"
   height="177.74936"
   viewBox="0 0 164.27423 177.74936"
   id="svg8552"
   version="1.1"
   inkscape:version="0.91 r13725"
   sodipodi:docname="taz.svg">
  <defs
     id="defs8554" />
  <sodipodi:namedview
     id="base"
     pagecolor="#ffffff"
     bordercolor="#666666"
     borderopacity="1.0"
     inkscape:pageopacity="0.0"
     inkscape:pageshadow="2"
     inkscape:zoom="3.0896271"
     inkscape:cx="81.137118"
     inkscape:cy="87.874682"
     inkscape:document-units="px"
     inkscape:current-layer="layer1"
     showgrid="false"
     fit-margin-top="0"
     fit-margin-left="0"
     fit-margin-right="0"
     fit-margin-bottom="0"
     units="px"
     inkscape:window-width="1280"
     inkscape:window-height="744"
     inkscape:window-x="-4"
     inkscape:window-y="-4"
     inkscape:window-maximized="1" />
  <metadata
     id="metadata8557">
    <rdf:RDF>
      <cc:Work
         rdf:about="">
        <dc:format>image/svg+xml</dc:format>
        <dc:type
           rdf:resource="http://purl.org/dc/dcmitype/StillImage" />
        <dc:title></dc:title>
      </cc:Work>
    </rdf:RDF>
  </metadata>
  <g
     inkscape:label="Layer 1"
     inkscape:groupmode="layer"
     id="layer1"
     transform="translate(1061.1371,-673.91609)">
    <g
       id="g8561"
       transform="translate(-1064.7131,670.74815)">
	<path
   id="path8563"
   d="m 78.218,139.026 c 1.234,-0.037 2.065,0.141 2.3,1.126 0.235,0.985 -0.141,1.127 -1.502,2.206 -1.361,1.079 -2.722,1.736 -4.083,2.723 -1.361,0.985 -4.177,2.816 -4.365,4.506 -0.188,1.689 0.141,2.675 1.549,2.675 1.408,0 3.145,0.234 5.397,0.234 2.252,0 4.365,0.517 7.087,1.314 2.723,0.799 3.942,1.878 7.838,3.802 3.896,1.925 8.261,4.084 11.875,4.976 3.614,0.892 6.196,1.126 7.839,0.563 1.643,-0.563 1.314,-1.784 1.314,-1.784 0,0 0.891,0.518 2.299,-0.516 1.408,-1.034 0.141,-3.849 -0.985,-4.929 -1.126,-1.079 -2.347,-2.065 -2.347,-2.065 0,0 0.282,-1.736 -1.596,-3.098 -1.878,-1.362 -3.989,-2.676 -7.838,-2.91 -3.85,-0.235 -7.651,0.845 -13.002,1.032 -5.351,0.188 -9.528,-0.798 -10.044,-1.126 -0.517,-0.328 -0.235,-0.751 0.845,-1.268 1.079,-0.517 7.697,-4.364 10.607,-6.853 l 1.549,0.282 0.141,-0.846 0.563,0.61 c 0,0 1.314,0.47 1.361,-4.459 0,0 1.126,0.376 1.314,-0.375 0.188,-0.751 0.094,-3.286 -3.755,-4.506 -3.85,-1.221 -6.666,-1.644 -9.388,-3.192 -2.722,-1.548 -3.989,-2.769 -3.989,-2.769 0,0 5.96,-7.839 8.824,-11.922 0,0 1.83,1.079 6.383,1.268 4.553,0.188 6.337,-2.723 5.867,-6.196 -0.47,-3.473 -2.253,-5.21 -3.379,-5.632 0,0 -0.048,-0.986 -0.188,-1.644 0,0 2.957,-3.379 8.496,-16.193 0,0 4.646,2.91 6.758,4.882 2.112,1.971 5.351,5.726 6.853,5.914 l 0.282,-0.47 c 0,0 2.3,2.535 4.553,0.845 0,0 0.281,-0.75 -0.281,-0.985 0,0 2.628,-0.234 2.769,-1.36 0,0 -0.094,-0.517 -0.985,-1.033 0,0 4.271,-3.098 5.82,-6.759 1.549,-3.661 0.563,-3.051 1.925,-4.834 1.36,-1.784 3.237,-4.459 5.256,-4.6 0,0 1.549,1.174 5.867,0.751 4.318,-0.423 6.008,-1.925 7.04,-2.863 0,0 1.972,0.188 3.145,-0.047 1.174,-0.234 2.348,-0.141 3.427,-0.141 0,0 -1.127,2.629 -0.563,4.694 0.564,2.065 1.126,2.769 2.628,2.769 1.502,0 2.676,-1.69 3.709,-2.863 1.032,-1.174 2.675,-8.261 -1.456,-8.824 -4.13,-0.563 -6.43,-0.281 -7.463,-0.516 -1.032,-0.235 -2.019,-1.409 -1.924,-1.831 0.094,-0.423 1.689,-2.863 2.487,-3.192 0.798,-0.329 1.361,0.61 3.333,0.704 0,0 0.059,2.159 1.643,2.582 1.583,0.422 2.394,0.563 4.036,-0.657 1.643,-1.22 4.506,-7.416 1.408,-8.965 -3.098,-1.549 -4.131,-0.375 -7.229,0.892 -3.098,1.267 -5.726,1.689 -7.557,1.643 -1.83,-0.047 -2.676,-0.892 -2.065,-1.878 0.61,-0.985 1.55,-1.642 3.708,-2.957 0,0 -0.188,1.549 1.549,1.736 1.737,0.188 4.084,0 6.478,-3.004 2.394,-3.004 1.644,-8.026 0.517,-9.012 -1.127,-0.986 -2.91,-2.722 -5.914,-0.047 -3.004,2.675 -6.337,6.336 -10.937,10.044 -4.6,3.708 -7.885,4.881 -10.467,2.582 0,0 1.268,-0.563 2.723,-1.033 1.455,-0.47 3.802,-2.44 2.863,-4.178 -0.938,-1.736 -4.178,-3.473 -6.993,-2.299 -2.816,1.173 -6.994,3.849 -7.135,6.853 -0.141,3.004 2.019,3.708 3.708,4.834 1.689,1.126 3.849,2.253 4.365,4.788 0.516,2.535 0.563,6.665 -0.845,8.12 -1.408,1.455 -4.319,3.567 -6.713,4.834 -2.394,1.267 -4.506,3.192 -4.506,3.192 0,0 -4.317,-2.394 -6.289,-5.163 -1.971,-2.769 -3.332,-6.477 -3.332,-6.477 0,0 1.267,-7.651 -1.314,-11.5 0,0 1.596,0.188 1.924,0 0.329,-0.188 -0.093,-3.567 -4.317,-4.975 0,0 1.221,-0.938 0.704,-1.502 -0.517,-0.564 -1.644,-1.173 -5.398,-0.705 0,0 1.08,-4.271 -0.234,-5.444 -1.314,-1.173 -3.191,-2.3 -3.521,-2.159 -0.328,0.141 -0.61,-1.971 -1.689,-2.252 0,0 2.581,-0.141 3.238,0.188 0.657,0.329 0.142,-1.173 -0.845,-1.69 -0.985,-0.516 -2.487,-1.22 -4.646,-1.22 0,0 0.234,-3.52 -0.704,-4.083 -0.938,-0.563 -1.268,0.985 -1.268,0.985 0,0 0.141,-4.506 -1.689,-4.693 0,0 -0.798,0.281 -0.798,1.83 0,1.549 -0.188,1.878 -0.188,1.878 0,0 -2.91,-1.737 -6.806,-0.047 0,0 1.737,-1.549 2.957,-1.831 1.22,-0.281 0.376,-1.596 -2.019,-1.08 -2.394,0.517 -4.553,1.033 -6.665,3.004 0,0 0.328,-1.502 1.549,-2.581 1.221,-1.08 2.159,-3.051 -0.892,-1.877 -3.051,1.173 -4.13,5.069 -4.13,5.069 0,0 -0.563,-2.3 -1.22,-1.361 -0.657,0.938 -1.362,4.271 -1.362,4.271 0,0 -1.924,-2.019 -2.628,-3.426 -0.704,-1.408 -1.033,-4.365 -0.986,-5.633 0.047,-1.267 -0.329,-2.018 -1.689,-0.375 -1.361,1.643 -1.784,3.52 -1.596,5.304 0,0 -0.657,-1.69 -1.126,-1.08 -0.469,0.61 -1.643,1.08 -1.22,4.881 0.422,3.802 3.051,5.82 3.051,5.82 0,0 -1.22,0 -1.455,1.924 0,0 -1.549,-0.329 -2.628,-1.831 -1.079,-1.502 -1.267,-2.159 -1.596,-3.333 -0.329,-1.174 -1.221,-1.361 -1.221,0.61 0,0 -0.891,-0.939 -2.252,-1.08 -1.361,-0.141 -3.286,-0.047 -2.112,1.455 0,0 -1.784,-0.704 -3.286,0.469 -1.502,1.173 -1.502,1.877 -0.422,2.253 0,0 -1.033,1.596 -0.282,2.019 0,0 -0.892,1.549 0.141,3.285 0,0 -1.267,-1.173 -3.802,-0.516 0,0 0.422,1.173 0.704,1.455 0,0 -1.455,0.188 -0.282,1.455 0,0 -4.318,-0.047 -8.12,0.563 -3.802,0.61 -6.102,1.173 -9.199,0.375 -3.098,-0.798 -6.478,-2.769 -8.636,-4.834 0,0 2.769,-1.737 5.491,-4.365 2.722,-2.629 2.91,-2.816 5.68,-3.474 2.769,-0.657 3.989,-0.845 4.6,-1.22 0,0 2.722,0.188 3.99,-0.657 0,0 2.159,0.657 4.928,-1.033 2.769,-1.69 4.459,-4.74 5.867,-6.336 1.408,-1.596 1.784,-1.173 3.286,-1.924 1.502,-0.751 2.44,-1.69 1.267,-3.99 -1.173,-2.3 -1.126,-3.567 -2.91,-5.163 -1.783,-1.596 -3.145,-3.286 -4.6,-1.268 -1.455,2.019 -0.938,4.694 2.676,7.933 0,0 -1.972,1.267 -3.38,1.126 -1.408,-0.141 -2.394,-1.502 -2.722,-3.849 -0.329,-2.347 -0.375,-4.177 0.375,-6.008 0.751,-1.831 2.394,-5.304 3.473,-5.116 0,0 0.329,2.535 1.643,3.802 1.314,1.267 2.534,1.455 3.473,0.329 0.939,-1.126 2.722,-4.741 1.596,-8.636 -1.126,-3.896 -2.816,-4.834 -4.834,-4.647 -2.018,0.188 -4.177,0.845 -6.665,6.149 0,0 -0.657,-3.004 -4.13,-4.881 -3.473,-1.877 -3.145,-1.549 -4.037,-0.282 -0.892,1.268 -0.798,2.347 -0.657,4.6 0.141,2.253 -0.375,5.304 -0.798,6.336 0,0 -1.643,-2.581 -4.318,-3.426 -2.675,-0.845 -3.567,0.657 -4.318,3.333 -0.751,2.676 -0.938,4.788 0.704,9.95 1.643,5.163 2.628,7.37 5.163,10.232 0,0 1.173,1.174 -2.769,1.69 -3.943,0.516 -3.99,0.657 -9.81,1.08 -5.82,0.422 -13.236,2.206 -15.114,7.65 0,0 0.704,0.61 2.253,-0.282 0,0 -2.253,1.972 -1.361,5.117 0,0 0.797,0.61 1.22,-0.235 0.422,-0.845 0.751,-1.126 0.751,-1.126 0,0 -0.141,3.567 1.126,3.989 0,0 0.469,-0.328 0.751,-0.751 0,0 0.469,0.517 1.408,1.549 0.939,1.033 3.849,3.521 7.416,5.069 3.567,1.549 9.247,5.163 12.204,7.932 2.957,2.77 6.008,6.29 6.008,6.29 0,0 1.033,4.037 1.502,8.214 0.469,4.177 1.314,10.749 1.971,15.161 0.657,4.412 1.784,8.729 2.065,12.203 0.282,3.474 -0.75,8.308 -1.032,10.748 -0.282,2.441 -0.141,5.304 -1.314,7.933 0,0 -3.239,-3.333 -4.271,-6.618 -1.033,-3.286 -2.723,-8.824 -4.929,-11.828 -2.206,-3.004 -4.271,-4.834 -7.04,-4.787 0,0 -0.798,0.938 0.234,1.596 1.032,0.658 2.065,2.394 3.051,4.271 0.985,1.877 1.314,3.332 1.267,4.646 0,0 -1.361,-1.268 -1.596,-0.188 -0.235,1.079 0.329,2.018 0.892,3.285 0.563,1.268 0.704,5.21 0.845,7.557 0.141,2.347 0.751,4.881 2.582,6.618 1.831,1.737 3.755,2.487 4.834,2.863 0,0 -2.3,2.675 -4.881,5.022 -2.582,2.347 -3.426,4.506 -3.426,4.881 0,0.376 2.206,0.329 2.206,0.329 0,0 -1.737,3.191 -1.033,4.693 l 1.361,0 c 0,0 -0.75,3.238 1.502,3.848 l 0.422,-0.375 c 0,0 1.033,1.784 2.347,2.206 1.314,0.423 4.083,2.205 10.514,2.3 0,0 -5.163,2.019 -7.838,2.347 -2.675,0.329 -6.383,0.234 -9.105,0.047 -2.723,-0.188 -5.632,-0.563 -9.998,3.38 -4.365,3.942 -4.834,6.665 -4.412,7.744 0,0 -1.877,3.942 0.375,6.478 2.253,2.534 3.52,0.188 5.398,-0.751 0,0 0.329,1.032 2.957,1.079 2.629,0.047 5.022,-0.798 8.167,-3.004 3.145,-2.205 8.12,-6.524 11.875,-9.199 3.755,-2.676 8.683,-5.633 10.936,-6.712 2.253,-1.08 2.534,-2.159 2.065,-2.91 -0.47,-0.751 -0.939,-1.549 -4.413,-2.112 -3.473,-0.563 -7.04,-1.221 -7.838,-3.051 -0.798,-1.83 0.094,-3.145 3.38,-5.538 3.286,-2.395 10.889,-4.975 13.94,-6.008 3.051,-1.033 5.351,-0.798 8.824,-0.985 3.471,-0.186 6.29,-0.465 9.48,-0.56 l 0,0 z"
   inkscape:connector-curvature="0" />

	<path
   id="path8565"
   d="m 39.094,129.139 c 0,0 -1.128,3.946 -2.819,5.826 0,0 -3.571,-0.564 -5.137,-2.819 -1.566,-2.255 -2.443,-3.445 -2.631,-7.329 -0.188,-3.885 -0.626,-7.393 -1.754,-9.084 0,0 1.253,1.002 1.754,1.44 0,0 0.501,-3.946 -1.378,-6.953 -1.879,-3.007 -2.757,-3.946 -3.759,-4.511 0,0 2.38,-0.25 4.761,2.631 2.381,2.883 3.508,4.323 4.887,9.272 1.377,4.949 3.757,9.773 6.076,11.527 l 0,0 z"
   inkscape:connector-curvature="0"
   style="fill:#825810" />

	<path
   id="path8567"
   d="m 105.344,58.046 c -1.359,-1.781 -3.469,-2.203 -5.578,-2.25 -2.108,-0.047 -3.937,0.094 -3.937,0.094 1.64,0.562 2.905,1.313 3.328,2.296 0.422,0.984 -0.142,3.563 -1.876,5.391 -1.734,1.828 -5.25,2.953 -8.53,3.328 -3.282,0.375 -5.953,-1.922 -6.422,-3.234 -0.469,-1.312 1.031,-3.75 1.031,-3.75 -1.031,0.609 -3.375,2.719 -4.031,3.609 -0.657,0.891 -1.172,1.125 -1.172,1.125 0.516,-1.313 2.297,-3.141 2.297,-3.141 -6.234,-4.406 -10.453,-5.672 -13.734,-6.469 -3.281,-0.797 -5.015,0.375 -5.015,0.375 0.703,0.141 3.14,1.172 3.14,1.172 0,0 -2.015,-0.141 -5.015,0.329 -3,0.469 -4.875,3.375 -4.875,3.375 1.347,-0.381 2.146,-0.377 2.817,-0.161 -0.621,0.369 -1.255,0.908 -1.871,1.688 -3.06,3.87 -4.59,10.89 -5.04,15.209 -0.45,4.32 -0.09,13.049 0.9,17.279 0.854,3.653 0.636,5.495 0.618,9.116 -0.196,3.495 -0.656,8.407 -1.519,14.014 -1.08,7.02 -0.45,9.449 -0.18,11.699 0.271,2.25 3.69,5.311 11.16,5.04 7.469,-0.27 13.5,-6.84 17.009,-10.35 3.509,-3.51 8.55,-11.7 8.55,-11.7 -0.45,-0.09 -1.08,-0.899 -1.08,-0.899 -10.62,4.59 -12.87,9.449 -16.739,10.529 -3.87,1.08 -6.93,0.63 -8.82,-3.06 -1.89,-3.689 -1.62,-5.49 -1.62,-14.039 0,-0.387 -0.018,-0.746 -0.043,-1.092 0.314,-0.326 0.555,-0.421 0.584,0.011 0.09,1.351 0,5.4 -0.09,7.381 -0.09,1.979 0.18,5.31 1.71,7.829 1.53,2.521 3.87,3.24 5.67,3.061 1.8,-0.181 3.87,-1.08 5.58,-2.341 1.71,-1.26 6.93,-5.939 11.789,-7.919 4.86,-1.98 4.23,-0.9 4.23,-0.9 0,0 -0.899,0.09 -1.529,0.36 0,0 -0.36,0.81 3.689,1.709 4.05,0.9 7.109,0.54 8.28,-1.26 1.17,-1.8 1.529,-5.939 -2.16,-8.819 l -0.181,1.62 c 0,0 0.63,0.989 -0.449,0.449 -1.08,-0.539 -3.87,-1.079 -7.021,-0.989 -3.149,0.09 -6.75,1.439 -9.449,2.34 -2.7,0.899 -3.06,1.979 -5.22,3.33 -2.16,1.35 -4.95,2.97 -7.379,2.069 -2.43,-0.899 -3.87,-4.229 -4.68,-8.369 -0.811,-4.141 -0.63,-8.91 0.9,-18.45 1.53,-9.54 2.52,-17.189 5.76,-21.06 0,0 -0.221,-0.014 -0.705,0.025 -0.334,0 -0.792,0.023 -1.284,0.117 -0.984,0.188 -0.422,-0.703 1.64,-0.797 2.062,-0.094 3.375,0.563 4.922,1.359 1.547,0.796 1.266,0.938 0.141,0.422 -1.125,-0.516 -1.875,-0.703 -1.875,-0.703 -0.609,1.875 -1.266,3.609 0.844,6.891 2.11,3.282 7.781,3.281 10.688,2.578 2.907,-0.703 6.469,-3.797 7.594,-4.969 1.125,-1.172 1.781,-2.063 2.813,-2.156 1.032,-0.093 0.796,0.094 -0.141,0.328 -0.938,0.234 -0.703,0.516 -0.703,0.516 2.391,0.797 3.608,0.516 6.468,0.563 2.86,0.047 3.563,-0.188 5.672,-2.625 2.108,-2.436 1.498,-5.342 0.139,-7.124 l 0,0 z"
   inkscape:connector-curvature="0"
   style="fill:#e0d0bb" />

	<path
   id="path8569"
   d="m 79.188,66.765 c -0.304,-0.395 -1.5,0.188 -1.219,0.75 0.281,0.562 1.688,-0.14 1.219,-0.75 l 0,0 z"
   inkscape:connector-curvature="0" />

	<path
   id="path8571"
   d="m 78.392,70.656 c -0.524,0.104 -0.516,0.563 -0.375,0.844 0.141,0.281 0.515,0.188 0.797,-0.188 0.281,-0.375 0.281,-0.797 -0.422,-0.656 l 0,0 z"
   inkscape:connector-curvature="0" />

	<path
   id="path8573"
   d="m 74.501,66.765 c -0.371,0.222 0,0.656 0.328,0.328 0.328,-0.328 -0.094,-0.468 -0.328,-0.328 l 0,0 z"
   inkscape:connector-curvature="0" />

	<path
   id="path8575"
   d="m 102.484,64.75 c -0.563,0.103 -0.563,0.75 -0.094,1.031 0.469,0.281 0.75,0.188 0.844,-0.188 0.094,-0.376 -0.234,-0.937 -0.75,-0.843 l 0,0 z"
   inkscape:connector-curvature="0" />

	<path
   id="path8577"
   d="m 102.672,61.328 c -0.362,0.136 -0.094,0.656 0.328,0.375 0.422,-0.281 0.047,-0.515 -0.328,-0.375 l 0,0 z"
   inkscape:connector-curvature="0" />

	<path
   id="path8579"
   d="m 104.125,60.062 c -0.3,0 -0.094,0.563 0.281,0.375 0.375,-0.187 0,-0.375 -0.281,-0.375 l 0,0 z"
   inkscape:connector-curvature="0" />

	<path
   id="path8581"
   d="m 63.873,106.5 c 0,0 0.676,2.549 2.497,4.005 1.82,1.456 2.08,0.677 2.08,0.677 0,0 0.572,-3.225 0.156,-5.306 -0.416,-2.08 -1.041,-3.173 -2.133,-2.34 -1.091,0.832 -1.82,1.664 -2.6,2.964 l 0,0 z"
   inkscape:connector-curvature="0"
   style="fill:#ffffff" />

	<path
   id="path8583"
   d="m 68.97,111.181 c 0,0 1.561,0.207 4.161,-1.404 2.6,-1.612 3.588,-2.86 5.305,-3.589 0,0 -0.78,-3.485 -1.873,-6.762 -1.093,-3.277 -2.081,-5.306 -2.497,-5.306 -0.416,0 -0.884,2.445 -1.404,5.462 -0.52,3.017 -2.704,8.738 -3.692,11.599 l 0,0 z"
   inkscape:connector-curvature="0"
   style="fill:#ffffff" />

	<path
   id="path8585"
   d="m 79.216,105.771 c 0,0 2.132,-0.779 4.525,-1.611 0,0 -0.104,-1.82 -0.988,-3.173 -0.884,-1.353 -1.196,-1.145 -1.612,-0.313 -0.416,0.832 -1.768,4.266 -1.925,5.097 l 0,0 z"
   inkscape:connector-curvature="0"
   style="fill:#ffffff" />

	<path
   id="path8587"
   d="m 84.574,103.951 c 0,0 3.016,-0.676 4.577,-0.728 0,0 0.053,-1.873 -0.779,-3.277 -0.833,-1.403 -1.145,-1.924 -1.925,-0.623 -0.781,1.3 -2.238,3.952 -1.873,4.628 l 0,0 z"
   inkscape:connector-curvature="0"
   style="fill:#ffffff" />

	<path
   id="path8589"
   d="m 89.619,103.171 c 0,0 4.057,-0.052 6.397,0.937 0,0 0.624,-2.705 -0.104,-5.41 -0.729,-2.704 -1.924,-4.16 -2.549,-4.629 -0.624,-0.468 -0.728,-0.155 -1.092,1.353 -0.364,1.508 -1.04,4.629 -2.809,6.813 l 0.157,0.936 0,0 z"
   inkscape:connector-curvature="0"
   style="fill:#ffffff" />

	<path
   id="path8591"
   d="m 63.249,88.244 c 0,0 -0.676,5.41 -0.78,8.374 -0.104,2.965 0.208,6.033 1.145,9.206 0,0 1.144,-1.665 2.236,-2.341 1.092,-0.676 1.873,-1.3 2.705,0.521 0.833,1.82 0.676,4.057 0.728,4.889 0,0 1.092,-3.068 2.081,-6.657 0.989,-3.589 1.3,-7.021 1.977,-8.01 0.677,-0.989 0.832,-0.988 1.508,-0.052 0.676,0.936 1.873,4.005 2.548,6.345 0.676,2.341 1.353,4.733 1.353,4.733 0,0 0.884,-2.444 1.612,-3.953 0.729,-1.508 1.145,-2.236 1.873,-1.56 0.729,0.676 1.665,2.08 1.821,3.016 0,0 1.04,-2.496 1.769,-3.432 0.728,-0.937 1.092,-1.405 1.456,-1.197 0,0 -0.729,-4.368 -2.549,-7.905 -1.82,-3.537 -4.057,-6.345 -7.125,-6.033 -3.068,0.312 -4.212,2.601 -4.473,3.589 0,0 0.78,1.196 0.676,2.705 0,0 -0.572,-2.289 -2.237,-4.109 -1.665,-1.82 -4.423,-4.267 -8.324,1.871 l 0,0 z"
   inkscape:connector-curvature="0"
   style="fill:#ed1847" />

	<path
   id="path8593"
   d="m 87.851,98.125 c 0,0 -1.041,-5.46 -2.601,-8.269 -1.561,-2.809 -3.329,-5.045 -4.993,-5.722 -1.664,-0.676 -5.461,-1.248 -7.438,2.861 0,0 -1.82,-3.484 -4.941,-3.225 -3.121,0.26 -4.369,2.965 -4.473,3.225 0,0 0.832,-4.681 1.352,-7.958 0.52,-3.277 1.665,-11.339 4.837,-15.396 0,0 0.832,-0.26 1.924,0.26 0,0 -1.353,2.809 -0.312,5.097 1.04,2.288 1.508,3.016 2.132,3.484 0,0 -0.572,4.161 2.808,5.565 0,0 1.613,-3.485 1.769,-3.589 l 0.625,0.104 c 0,0 0.364,1.769 0.364,3.277 0,1.508 -0.104,3.279 -0.104,4.112 0,0.832 0.104,1.3 0.676,1.404 0.572,0.104 2.185,-0.417 3.901,-3.173 1.716,-2.756 2.028,-4.681 2.132,-6.969 l 1.196,-0.572 c 0,0 -0.26,2.86 0.521,3.172 0.78,0.313 1.508,0.156 2.288,-1.3 0.78,-1.457 1.82,-3.849 1.977,-5.565 l 0.364,-0.572 c 0,0 -0.208,2.081 -0.208,3.589 0,1.508 0.312,2.185 0.936,2.549 0.624,0.364 1.405,-0.104 2.497,-1.821 1.092,-1.716 2.288,-3.953 2.288,-3.953 0,0 -0.572,3.069 -1.3,5.253 -0.729,2.185 -1.093,3.277 -0.729,3.953 0,0 -0.416,1.561 -1.352,3.849 -0.937,2.289 -2.081,4.681 -2.133,7.438 -0.053,2.757 0.624,4.213 0.624,4.213 0,0 -0.729,2.133 -1.196,3.745 -0.467,1.612 -1.248,3.381 -1.769,4.108 0.002,-0.001 -0.779,-2.289 -1.662,-3.174 l 0,0 z"
   inkscape:connector-curvature="0"
   style="fill:#a72244" />

	<path
   id="path8595"
   d="m 95.971,78.097 c 0,0 -1.705,4.191 -2.416,6.749 -0.71,2.557 -1.421,4.546 -0.497,8.311 0,0 3.339,2.558 3.623,6.536 0,0 3.481,-6.181 5.825,-10.798 2.345,-4.618 6.039,-16.411 6.465,-17.831 0.427,-1.421 0.355,-1.776 0,-2.558 -0.355,-0.781 0,-1.208 0.427,-0.497 0.426,0.71 0.78,1.137 0.78,2.06 0,0 1.137,-2.7 0.285,-7.104 -0.853,-4.404 -1.421,-4.404 -1.421,-4.404 0,0 1.278,-0.498 2.202,-0.143 0,0 -1.137,-3.054 -4.831,-3.836 0,0 0.071,-0.426 0.711,-0.923 0.639,-0.498 0.568,-0.995 -0.782,-1.066 -1.35,-0.071 -6.891,0.285 -8.524,2.7 0,0 3.623,0 5.399,0.568 1.775,0.568 4.049,3.41 3.765,5.683 -0.284,2.273 -1.137,4.404 -3.907,6.394 0,0 -1.278,4.973 -2.842,6.962 -1.563,1.989 -3.197,3.055 -4.262,3.197 l 0,0 z"
   inkscape:connector-curvature="0"
   style="fill:#e0d0bb" />

	<path
   id="path8597"
   d="m 104.116,64.362 c 0,0 -0.758,0.568 0.189,0.663 0.947,0.095 5.872,0.189 10.987,1.989 0.001,0.001 -1.894,-1.515 -11.176,-2.652 l 0,0 z"
   inkscape:connector-curvature="0" />

	<path
   id="path8599"
   d="m 103.832,61.899 c 0,0 -0.474,0.474 0.284,0.474 0.758,0 7.104,-1.231 12.219,-0.379 0,10e-4 -4.736,-0.852 -12.503,-0.095 l 0,0 z"
   inkscape:connector-curvature="0" />

	<path
   id="path8601"
   d="m 73.839,72.695 c 0,0 2.829,1.349 3.75,1.514 0,0 -1.382,2.829 -1.612,3.125 -0.23,0.296 -2.566,-1.119 -2.138,-4.639 l 0,0 z"
   inkscape:connector-curvature="0"
   style="fill:#ffffff" />

	<path
   id="path8603"
   d="m 79.07,74.471 c 0,0 3.686,0.033 5.89,-1.02 0,0 0.394,2.303 -1.284,5.231 -1.678,2.928 -2.434,3.455 -3.29,3.916 -0.855,0.46 -1.185,0.691 -1.119,-0.823 0.066,-1.513 0.132,-6.185 -0.197,-7.304 l 0,0 z"
   inkscape:connector-curvature="0"
   style="fill:#ffffff" />

	<path
   id="path8605"
   d="m 87.229,72.267 c 0,0 -0.428,3.126 0.23,3.257 0.658,0.131 1.81,0 3.619,-6.35 10e-4,0 -3.257,2.731 -3.849,3.093 l 0,0 z"
   inkscape:connector-curvature="0"
   style="fill:#ffffff" />

	<path
   id="path8607"
   d="m 92.625,67.694 -0.428,0.395 c 0,0 -0.197,3.027 -0.197,3.784 0,0.757 0.296,2.171 0.79,2.271 0.493,0.099 1.514,-0.56 4.277,-5.857 0,-0.001 -2.369,0.032 -4.442,-0.593 l 0,0 z"
   inkscape:connector-curvature="0"
   style="fill:#ffffff" />

	<path
   id="path8609"
   d="m 97.791,68.286 c 0,0 -0.494,3.652 -1.251,5.725 -0.757,2.073 -1.282,3.455 -0.789,3.652 0.493,0.198 1.875,-0.329 3.783,-2.764 1.909,-2.435 2.501,-4.968 2.863,-6.843 0,0 -2.698,0.46 -4.606,0.23 l 0,0 z"
   inkscape:connector-curvature="0"
   style="fill:#ffffff" />

	<path
   id="path8611"
   d="m 94.601,58.191 c 0.28,0.903 -0.881,2.133 -2.657,2.765 -1.85,0.657 -3.638,0.415 -3.924,-0.562 -0.285,-0.972 1.044,-2.247 2.898,-2.83 1.782,-0.561 3.402,-0.273 3.683,0.627 l 0,0 z"
   inkscape:connector-curvature="0"
   style="fill:#ffffff" />

	<path
   id="path8613"
   d="m 114.547,156.744 c -1.628,-2.056 -5.612,-4.542 -7.327,-4.842 0,0 -0.557,-0.428 0.558,-0.214 1.113,0.214 3.514,1.457 4.113,2.057 0,0 0.471,-1.328 -2.143,-2.956 -2.613,-1.629 -5.014,-2.571 -8.87,-2.271 -3.855,0.3 -11.783,1.199 -15.725,0.856 -3.942,-0.342 -6.728,-1.242 -6.342,-2.014 0.386,-0.772 2.228,-1.843 5.228,-3.599 3,-1.758 6.771,-4.328 7.114,-5.271 l 1.199,0.6 c 0,0 0.215,-1.328 0,-1.799 0,0 1.243,0.042 1.5,1.37 0,0 0.938,-1.614 0.191,-4.984 0.749,0.266 1.404,0.64 1.651,0.957 0,0 -0.001,-1.971 -1.586,-2.742 -1.585,-0.771 -4.456,-1.757 -6.898,-2.271 -2.443,-0.514 -5.228,-1.628 -8.355,-5.013 0,0 -3.343,3.813 -6.856,6.256 -3.514,2.442 -8.655,4.156 -12.254,4.113 -3.6,-0.043 -8.57,-2.313 -9.556,-5.185 -0.921,-2.683 -0.458,-7.947 -0.218,-10.584 0.472,-2.954 0.77,-6.157 1.104,-9.251 0.414,-3.848 1.006,-9.709 0.71,-12.018 -0.296,-2.309 -1.54,-7.044 -1.717,-14.74 -0.178,-7.696 1.539,-17.523 5.92,-22.377 0,0 -1.006,-0.059 -1.835,0.355 0,0 -0.06,-4.025 6.808,-5.091 l -0.533,-0.533 c 0,0 -2.486,1.125 -4.795,-0.532 -2.309,-1.658 -4.203,-3.552 -4.203,-3.552 0,0 -1.125,-1.184 -3.611,-1.243 0,0 1.421,1.006 1.54,1.539 0.118,0.533 -0.77,0.237 -1.48,0.119 -0.71,-0.119 -0.889,0.237 -0.237,0.533 0.651,0.296 1.006,0.888 0.059,0.888 -0.947,0 -6.334,0.119 -9.768,0.651 -3.434,0.532 -2.664,1.184 -5.979,0.71 -3.315,-0.474 -8.702,-2.427 -11.307,-5.564 0,0 -3.576,1.308 -6.547,1.232 0.812,-0.327 3.435,-0.894 5.079,-1.611 2.522,-1.102 4.262,-1.989 6.998,-4.938 2.735,-2.948 5.79,-3.694 7.672,-3.942 1.882,-0.249 2.415,-0.782 2.415,-0.782 -0.817,-0.106 -0.71,-0.497 -0.533,-0.497 0.177,0 1.741,0.142 3.126,0.142 1.385,0 2.557,-0.888 3.019,-2.096 0.462,-1.208 0,-2.735 -0.284,-3.587 -0.284,-0.853 -0.249,-1.244 0.071,-0.746 0.32,0.497 0.462,0.853 0.888,2.522 0.426,1.669 -0.391,3.125 -0.391,3.125 3.339,0.497 6.287,-2.557 7.317,-4.014 1.03,-1.456 1.492,-2.131 2.735,-3.161 1.243,-1.03 2.202,-1.457 3.019,-1.918 0.817,-0.462 1.243,-1.279 1.243,-1.279 -0.817,-3.765 -2.309,-5.363 -3.552,-6.82 -1.243,-1.456 -2.593,-2.06 -3.481,-0.923 -0.888,1.136 -0.675,1.954 0.036,3.623 0.71,1.67 3.232,3.694 3.232,3.694 -0.817,1.101 -1.776,1.634 -3.481,1.918 -1.705,0.284 -2.522,-0.142 -3.055,-0.888 -0.533,-0.746 -1.101,-2.983 -1.208,-4.12 -0.106,-1.137 -0.249,-1.705 -0.142,-3.303 0.106,-1.598 0.533,-2.735 2.024,-5.541 1.492,-2.806 2.522,-2.416 2.522,-2.416 0,0 0,-0.639 0.036,-1.101 0.035,-0.462 0.177,-3.375 0.497,-0.106 0.32,3.268 1.385,4.902 2.522,5.719 1.137,0.817 2.238,-0.462 3.268,-3.943 1.03,-3.481 -1.066,-7.246 -2.664,-8.276 -1.599,-1.03 -4.653,0.817 -5.896,2.451 -1.243,1.634 -2.273,4.156 -2.273,4.156 0.106,1.492 0.604,3.126 -0.319,4.618 -0.924,1.492 -3.055,0.249 -3.055,0.249 -1.349,2.416 -1.208,3.446 -1.208,4.014 0,0.568 0.355,1.847 0,1.598 -0.355,-0.249 -0.639,-1.669 -0.391,-2.912 0.249,-1.243 1.101,-3.055 1.101,-3.055 -3.375,-2.522 -3.481,-6.5 -3.481,-6.5 0,0 0.675,1.244 1.102,2.771 0.426,1.527 2.734,3.268 3.871,3.871 1.137,0.604 2.061,-0.604 2.132,-1.847 C 44.682,13.24 44.22,10.504 42.799,8.516 41.379,6.527 38.857,4.964 37.933,4.751 37.01,4.538 36.69,5.284 36.406,6.598 c -0.284,1.314 0,3.516 0.036,5.612 0.035,2.096 -1.03,4.653 -1.03,4.653 1.03,1.137 1.421,2.167 1.883,4.582 0.461,2.415 -1.03,4.156 -2.344,4.156 -1.314,0 -3.197,-1.599 -4.476,-3.623 -1.279,-2.025 -1.066,-3.587 -1.066,-3.587 0,0 0.853,2.025 2.38,4.44 1.527,2.416 3.872,1.989 4.369,1.563 0.497,-0.426 0.568,-4.014 -0.781,-6.571 -1.35,-2.558 -4.049,-4.263 -5.328,-4.724 -1.279,-0.461 -2.238,0.639 -3.268,3.907 -1.03,3.268 -0.249,6.003 1.563,10.833 1.812,4.83 3.587,6.926 4.511,7.814 0.923,0.888 0.497,1.172 0.284,1.776 -0.213,0.604 -1.101,0.782 -3.055,1.279 -1.954,0.497 -8.951,1.137 -13.746,1.705 -4.795,0.568 -6.216,1.705 -8.276,3.055 -2.06,1.349 -2.486,2.628 -2.486,2.628 0,0 0.959,-0.674 1.812,-0.674 0.853,0 0.036,0.639 -1.065,2.273 -1.102,1.634 -0.355,3.445 -0.355,3.445 0.533,-1.35 1.776,-2.344 2.096,-2.131 0.121,0.081 0.186,0.434 0.22,0.842 -0.002,0.008 -0.004,0.015 -0.006,0.022 -0.474,1.895 -0.06,2.605 0.237,3.375 0,0 0.236,-1.362 1.302,-0.77 1.065,0.592 -0.474,0.415 2.782,2.901 3.256,2.486 3.789,2.783 6.216,3.848 2.427,1.065 5.209,3.019 8.347,4.973 3.137,1.954 7.992,6.689 9.59,8.525 1.599,1.835 0.651,2.309 1.302,4.38 0.651,2.072 0.415,3.138 0.711,5.624 0.296,2.486 0.592,6.512 0.888,7.814 0.507,2.23 1.065,8.584 1.599,10.715 0.533,2.131 1.302,6.571 1.302,8.88 0,1.434 0,3.188 -0.014,4.863 -0.005,0.033 -0.013,0.062 -0.016,0.097 -0.386,3.856 -0.771,4.842 -1.243,8.526 -0.471,3.686 -1.756,7.585 -2.056,8.527 -0.723,2.268 -2.742,4.199 -5.099,6.813 -2.356,2.613 -5.099,5.014 -5.57,6.213 0,0 1.2,0.129 2.143,0.086 0,0 -0.771,0.729 -0.986,2.014 -0.214,1.285 -0.771,2.657 -0.771,2.657 0,0 1.028,-0.729 1.5,-0.086 0.036,0.048 0.079,0.09 0.126,0.128 -0.459,1.689 -0.628,2.827 0.472,3.812 0,0 0.198,-1.387 0.726,-1.321 0.528,0.066 0.066,1.585 1.717,2.773 1.651,1.189 5.019,2.378 8.585,2.642 3.566,0.265 6.009,-0.132 6.273,0.265 0.264,0.397 -1.716,0.396 -3.962,1.387 -2.245,0.99 -5.547,2.179 -8.188,2.443 -2.38,0.238 -6.273,0.198 -9.246,-0.132 -2.971,-0.331 -4.755,0.132 -6.736,1.519 -1.981,1.387 -3.764,3.236 -5.085,4.953 -1.321,1.717 -1.651,2.113 -1.453,3.235 0,0 1.453,-2.179 2.575,-3.037 1.123,-0.859 2.444,-1.52 4.359,-1.321 0,0 -3.5,0.595 -5.019,2.905 -1.519,2.312 -3.104,4.161 -2.444,6.538 0.661,2.378 1.717,2.642 2.774,2.443 1.057,-0.199 2.047,-1.188 2.708,-1.915 0,0 -0.792,-2.575 0.528,-4.82 1.321,-2.246 3.236,-3.896 6.274,-3.896 0,0 -3.17,0.99 -4.557,2.708 -1.387,1.717 -2.047,3.764 -1.519,6.009 0,0 0.528,1.387 2.906,1.255 2.378,-0.132 5.085,-1.452 7.991,-3.5 2.905,-2.047 4.49,-3.632 8.584,-6.935 4.095,-3.302 9.18,-5.943 11.293,-7 2.113,-1.056 4.094,-1.914 4.094,-3.169 0,-1.255 -2.113,-1.718 -4.688,-2.048 -2.576,-0.33 -6.34,-0.925 -7.462,-3.17 -1.122,-2.245 -0.726,-3.962 2.576,-6.075 2.456,-1.572 5.022,-2.888 7.536,-3.921 1.425,-0.438 3.698,-1.221 5.273,-1.895 0.508,-0.175 0.998,-0.342 1.464,-0.499 2.172,-0.607 5.444,-1.146 7.183,-1.346 1.027,-0.025 2.175,-0.05 3.441,-0.133 3.038,-0.197 7.396,-0.396 9.179,-0.197 0.183,0.02 0.315,-0.013 0.409,-0.084 0.708,0.12 1.277,0.297 1.488,0.558 0.729,0.899 0.557,2.186 -0.171,2.956 -0.729,0.771 -3.128,2.229 -5.099,3.6 -1.971,1.371 -3.728,2.657 -4.157,4.414 -0.428,1.757 0.857,1.628 1.8,1.628 0.942,0 5.913,-0.043 9.041,0.686 3.128,0.729 4.584,1.414 7.627,2.999 3.042,1.586 8.74,4.671 11.997,5.699 3.256,1.028 7.069,2.057 8.569,1.886 1.5,-0.171 2.528,-0.643 2.442,-1.714 -0.085,-1.071 -1.585,-2.914 -3.642,-4.156 -2.057,-1.243 -3.128,-1.585 -3.085,-1.757 0.043,-0.172 0.472,-0.215 1.628,0.3 1.157,0.515 4.842,3.128 5.441,4.842 0,0 1.029,0.729 1.843,0.3 0.81,-0.433 1.324,-1.89 -0.304,-3.946 l 0,0 z"
   inkscape:connector-curvature="0"
   style="fill:#825810" />

	<path
   id="path8615"
   d="m 51.469,46.155 c 0,0 2.167,-1.548 3.405,-1.754 1.238,-0.207 3.611,0.464 4.694,1.754 1.083,1.29 1.754,2.27 1.754,2.27 0,0 0.258,-0.67 0.155,-1.032 0,0 1.083,0.877 1.187,2.683 0.104,1.806 -0.361,4.127 -0.877,4.591 -0.516,0.464 1.29,-0.929 4.54,-0.31 3.25,0.619 5.778,1.599 5.778,1.599 0,0 -1.083,-2.528 0.361,-5.004 0,0 -1.444,-0.31 -2.425,0.155 -0.98,0.464 -2.476,1.083 -2.115,0.516 0.361,-0.567 1.496,-1.96 1.496,-1.96 0,0 -0.774,-0.31 -0.207,-0.825 0.567,-0.516 1.341,-1.341 3.095,-1.444 1.754,-0.103 3.536,-0.021 6.242,0.722 2.631,0.722 7.016,2.734 9.08,4.437 l -0.104,-0.258 c 0,0 0.052,-4.333 1.29,-6.604 1.238,-2.27 2.167,-3.663 2.27,-4.023 0.104,-0.361 -0.773,-1.497 -1.548,-1.083 -0.773,0.413 -3.25,2.167 -4.179,4.643 0,0 -1.187,-1.393 3.869,-5.313 0,0 -0.516,-0.567 -1.031,-0.67 -0.516,-0.104 -3.096,-0.104 -3.096,-0.104 0,0 2.115,1.651 0.567,2.838 -1.547,1.187 -4.591,0.413 -6.964,-0.826 0,0 4.953,1.548 6.294,0.413 1.341,-1.135 -0.62,-2.167 -1.341,-2.373 0,0 -3.508,-0.155 -4.23,-0.826 0,0 -0.206,-0.258 1.651,-0.206 1.857,0.052 7.48,0.103 8.873,-0.052 1.393,-0.155 2.579,-1.238 -0.155,-2.115 -2.733,-0.877 -5.21,-0.155 -6.036,0.258 -0.825,0.413 -1.083,1.032 -1.547,0.567 -0.464,-0.464 0.722,-2.321 4.179,-3.766 0,0 -2.786,-0.103 -5.313,1.187 -2.528,1.29 -3.56,2.631 -3.56,2.631 0,0 -0.67,-3.095 2.941,-5.571 0,0 -2.941,-0.104 -5.623,5.88 0,0 -1.135,-0.619 -0.98,-1.806 0,0 -0.928,2.012 -1.341,5.004 0,0 -2.528,-1.651 -3.56,-3.869 -1.032,-2.218 -1.341,-3.766 -0.98,-7.119 0,0 -1.857,1.135 -2.064,4.076 -0.206,2.94 0.31,3.146 -0.516,3.146 -0.826,0 -1.135,-1.857 -1.135,-1.857 0,0 -1.909,3.87 0.155,6.707 2.063,2.837 3.714,3.56 3.714,3.56 0,0 -2.115,-0.464 -2.528,0.619 -0.413,1.083 -0.464,1.6 0.722,2.58 0,0 -0.774,0.31 -2.631,-1.083 -1.857,-1.393 -3.508,-2.837 -4.127,-5.313 0,0 -0.207,0.619 -0.31,1.238 0,0 -2.374,-2.58 -4.437,-1.445 0,0 1.135,1.032 1.032,1.548 -0.103,0.516 -0.31,-0.516 -1.96,-0.413 -1.65,0.103 -2.889,1.341 -2.889,1.341 l 1.187,0.206 c 0,-0.003 -0.825,1.081 -0.722,1.855 l 0,0 z"
   inkscape:connector-curvature="0"
   style="fill:#825810" />

	<path
   id="path8617"
   d="m 75.974,43.008 c -1.238,-0.052 -1.857,0.103 -2.373,0.619 -0.516,0.516 -1.238,0.052 -0.104,-0.567 1.134,-0.619 3.405,-1.083 6.139,0.361 0,0 0.826,0.671 -1.238,0.052 -2.064,-0.62 -2.424,-0.465 -2.424,-0.465 l 0,0 z"
   inkscape:connector-curvature="0" />

	<path
   id="path8619"
   d="m 57.711,45.587 c -1.175,-0.641 -2.837,-0.877 -4.437,0.207 -1.599,1.083 -3.663,2.527 -1.083,5.468 2.58,2.94 5.21,4.178 7.016,4.023 1.806,-0.155 3.044,-2.476 2.786,-3.869 -0.258,-1.392 -2.012,-4.591 -4.282,-5.829 l 0,0 z"
   inkscape:connector-curvature="0"
   style="fill:#e0d0bb" />

	<path
   id="path8621"
   d="m 90.114,39.143 c 0,0 0.138,0.231 0.138,0.509 0,0 1.018,0.277 1.896,1.017 0,0 1.156,-1.109 2.497,-1.202 0,0 0.277,-3.329 -0.37,-3.421 l -1.155,1.525 c 0,0 -0.324,-0.555 -0.324,-1.433 0,-0.878 -0.276,-3.56 -1.248,-3.56 -0.462,0 0.647,1.11 -0.323,3.19 0,0 1.757,0.925 1.109,2.034 -0.648,1.11 -1.203,1.064 -2.22,1.341 l 0,0 z"
   inkscape:connector-curvature="0"
   style="fill:#825810" />

	<path
   id="path8623"
   d="m 80.839,61.014 c 0,0 -3.552,-2.482 -5.242,-3.23 0,0 -1.327,-2.482 -0.834,-3.98 0.492,-1.498 2.375,-3.103 5.499,-2.396 3.124,0.706 6.162,2.247 8.708,4.621 -0.001,0 -2.333,0.749 -8.131,4.985 l 0,0 z"
   inkscape:connector-curvature="0"
   style="fill:#ffffff" />

	<path
   id="path8625"
   d="m 85.332,54.681 c -0.928,-0.272 -2.097,0.749 -1.711,2.225 0.385,1.476 1.519,1.22 1.711,1.134 0.192,-0.085 1.391,-2.953 0,-3.359 l 0,0 z"
   inkscape:connector-curvature="0" />

	<path
   id="path8627"
   d="m 89.478,55.926 c 0,0 -0.297,-4.398 2.24,-8.415 2.537,-4.018 3.003,-4.821 4.271,-2.833 1.268,1.988 1.311,8.711 -0.338,10.994 0,0 -2.538,-0.423 -6.173,0.254 l 0,0 z"
   inkscape:connector-curvature="0"
   style="fill:#ffffff" />

	<path
   id="path8629"
   d="m 92.944,51.908 c -0.929,0.067 -1.396,1.058 -1.396,1.819 0,0.761 0.296,2.029 0.973,2.029 0.677,0 1.311,-1.48 1.311,-2.241 0,-0.761 -0.296,-1.649 -0.888,-1.607 l 0,0 z"
   inkscape:connector-curvature="0" />

	<path
   id="path8631"
   d="m 102.416,47.172 c 0,0 -0.211,-0.761 -1.311,-1.226 -1.1,-0.465 -1.354,-1.015 -2.283,0.042 -0.931,1.058 -1.48,2.833 -1.48,2.833 0,0 -0.042,3.933 -0.38,5.582 0,0 0.465,-0.803 0.972,-2.157 0.508,-1.353 1.48,-3.763 2.453,-4.482 0.973,-0.719 1.395,-0.718 2.029,-0.592 l 0,0 z"
   inkscape:connector-curvature="0"
   style="fill:#825810" />

	<path
   id="path8633"
   d="m 97.596,54.023 c 0,0 1.142,-2.791 1.776,-4.017 0.634,-1.227 1.479,-2.495 3.002,-2.241 0,0 0.296,1.142 0.254,2.706 -0.042,1.564 -1.016,2.199 -1.016,2.199 0,0 -2.494,0.845 -3.213,1.269 0,-10e-4 -1.649,1.268 -0.803,0.084 l 0,0 z"
   inkscape:connector-curvature="0"
   style="fill:#e0d0bb" />

	<path
   id="path8635"
   d="m 109.739,71.486 c 0,0 0.24,1.15 0.527,1.102 0.287,-0.048 0.335,-1.15 0.335,-1.15 0,0 1.727,4.361 3.69,6.565 1.965,2.204 4.984,4.601 6.326,5.08 0,0 -0.91,1.15 -1.055,2.157 -0.144,1.006 -0.096,2.013 0.24,1.198 0.335,-0.815 0.623,-2.252 1.82,-3.163 1.198,-0.911 3.595,-2.971 5.751,-4.313 2.157,-1.342 3.067,-1.726 4.505,-3.259 1.438,-1.534 2.396,-3.354 2.109,-6.086 -0.288,-2.732 -0.001,-4.265 -0.863,-5.367 -0.862,-1.103 -2.108,-2.061 -4.073,-3.403 -1.965,-1.342 -3.786,-2.923 -3.307,-4.745 0.479,-1.821 2.492,-3.642 4.601,-4.984 2.109,-1.342 3.978,-1.246 5.367,-0.862 1.39,0.383 3.115,1.341 3.067,2.588 -0.048,1.246 -2.349,2.827 -4.025,3.258 -1.678,0.432 -3.738,0.959 -3.45,1.438 0.287,0.479 1.39,-0.24 1.39,-0.24 0,0 0.958,1.342 2.827,1.629 1.869,0.287 4.265,-0.288 7.093,-2.396 2.828,-2.109 6.949,-5.751 8.818,-7.38 1.869,-1.629 3.163,-3.834 4.937,-4.744 1.772,-0.911 3.45,-1.007 4.601,1.389 1.149,2.396 0.432,7.237 -2.396,8.914 -2.828,1.677 -4.792,1.869 -5.271,0.575 -0.479,-1.294 0.287,-3.45 0.862,-4.745 0.575,-1.294 1.246,-3.642 1.246,-3.642 0,0 -1.342,2.061 -2.108,3.499 -0.767,1.438 -0.814,3.546 -0.814,3.546 0,0 -2.109,1.629 -3.26,2.348 -1.149,0.719 -2.061,2.3 -1.054,3.307 1.007,1.007 3.978,0.91 5.654,0.575 1.678,-0.335 4.841,-1.582 6.806,-2.396 1.965,-0.814 2.492,-0.862 3.738,-0.335 1.246,0.527 2.54,1.581 1.438,4.792 -1.102,3.211 -3.067,4.84 -4.648,4.169 -1.582,-0.671 -3.133,-2.444 -1.342,-5.032 1.79,-2.588 1.821,-3.259 1.102,-2.684 -0.719,0.575 -2.156,2.492 -2.444,4.745 0,0 -0.814,0.288 -1.437,-0.144 -0.623,-0.432 -0.863,-1.103 -2.062,-0.432 -1.197,0.671 -2.539,2.828 -2.875,3.451 -0.336,0.623 0.191,1.582 1.007,2.108 0.814,0.527 1.82,0.958 4.408,0.958 2.588,0 4.841,-0.144 5.799,1.198 0.959,1.342 0.958,3.882 0.239,5.655 -0.718,1.773 -2.539,4.41 -4.121,3.882 -1.581,-0.527 -2.156,-2.396 -1.629,-4.745 0.527,-2.349 1.198,-3.786 1.198,-3.786 0,0 -0.671,0 -1.246,1.103 0,0 -2.014,0.048 -2.732,0.048 -0.718,0 -1.103,0.288 -2.252,0.288 -1.15,0 -1.629,-0.288 -2.636,0.383 -1.007,0.671 -2.349,2.013 -5.08,2.205 -2.731,0.191 -4.984,0.24 -5.847,-0.144 -0.862,-0.383 -0.958,-1.198 -1.581,-1.773 -0.623,-0.575 -0.863,-0.335 -0.479,0.335 0.384,0.67 0.384,1.006 0.384,1.006 0,0 -1.246,0.479 -3.211,2.492 -1.965,2.013 -2.685,3.306 -3.02,4.217 -0.336,0.91 -0.24,2.444 -1.773,4.553 -1.533,2.108 -3.163,3.93 -5.463,5.176 0,0 -0.192,0.67 1.197,1.341 0,0 -1.197,0.863 -2.923,0.768 0,0 -0.287,1.103 0.814,1.198 0,0 -0.862,1.007 -2.444,0.096 -1.581,-0.91 -2.3,-1.725 -2.3,-1.725 l 0.335,1.006 c 0,0 -0.719,0 -1.438,-0.91 -0.719,-0.911 -3.067,-2.828 -4.601,-4.505 -1.533,-1.678 -5.367,-4.313 -7.236,-5.08 10e-4,0.002 3.163,-8.769 4.265,-12.171 l 0,0 z"
   inkscape:connector-curvature="0"
   style="fill:#825810" />

	<path
   id="path8637"
   d="m 143.143,64.153 c 0,0 1.63,3.546 -1.006,6.757 0,0.001 4.073,-3.306 1.006,-6.757 l 0,0 z"
   inkscape:connector-curvature="0" />

	<path
   id="path8639"
   d="m 74.659,68.909 c 0,0 -5.115,0.379 -8.809,4.452 0,0 0.379,-2.937 7.862,-4.831 -0.001,0 1.326,-0.379 0.947,0.379 l 0,0 z"
   inkscape:connector-curvature="0" />

	<path
   id="path8641"
   d="m 75.7,70.14 c 0,0 0.664,0.474 0.095,0.664 -0.568,0.189 -3.505,1.42 -6.346,5.209 0,0 -0.947,-0.663 6.251,-5.873 l 0,0 z"
   inkscape:connector-curvature="0" />

</g>
  </g>
</svg>
